REM DIRINDEX 1\2,1\3,1\4,1\5,1\6
REM DIRNAME cjc129,folder01,folder02,folder03,folder04,folder05
TITLE ""
FILE "DISC1Track28.mp3" MP3
  TRACK 01 AUDIO
    TITLE "0:"
    INDEX 01 00:00:00
  TRACK 02 AUDIO
    TITLE "2:cjc129_0777"
    INDEX 01 00:06:35
  TRACK 03 AUDIO
    TITLE "0:"
    INDEX 01 00:11:21
  TRACK 04 AUDIO
    TITLE "2:cjc129_0778"
    INDEX 01 00:11:74
  TRACK 05 AUDIO
    TITLE "0:"
    INDEX 01 00:17:33
  TRACK 06 AUDIO
    TITLE "3:cjc129_0779"
    INDEX 01 00:18:44
  TRACK 07 AUDIO
    TITLE "0:"
    INDEX 01 00:19:69
  TRACK 08 AUDIO
    TITLE "5:cjc129_0780"
    INDEX 01 00:20:28
  TRACK 09 AUDIO
    TITLE "0:"
    INDEX 01 00:24:29
  TRACK 10 AUDIO
    TITLE "4:cjc129_0781"
    INDEX 01 00:25:17
  TRACK 11 AUDIO
    TITLE "0:"
    INDEX 01 00:26:42
  TRACK 12 AUDIO
    TITLE "6:cjc129_0782"
    INDEX 01 00:26:73
  TRACK 13 AUDIO
    TITLE "0:"
    INDEX 01 00:31:35
  TRACK 14 AUDIO
    TITLE "3:cjc129_0783"
    INDEX 01 00:33:11
  TRACK 15 AUDIO
    TITLE "0:"
    INDEX 01 00:36:21
  TRACK 16 AUDIO
    TITLE "5:cjc129_0784"
    INDEX 01 00:36:54
  TRACK 17 AUDIO
    TITLE "0:"
    INDEX 01 00:38:41
  TRACK 18 AUDIO
    TITLE "4:cjc129_0785"
    INDEX 01 00:39:31
  TRACK 19 AUDIO
    TITLE "0:"
    INDEX 01 00:42:45
  TRACK 20 AUDIO
    TITLE "6:cjc129_0786"
    INDEX 01 00:43:01
  TRACK 21 AUDIO
    TITLE "0:"
    INDEX 01 00:47:03
  TRACK 22 AUDIO
    TITLE "3:cjc129_0787"
    INDEX 01 00:48:51
  TRACK 23 AUDIO
    TITLE "0:"
    INDEX 01 00:49:70
  TRACK 24 AUDIO
    TITLE "5:cjc129_0788"
    INDEX 01 00:50:27
  TRACK 25 AUDIO
    TITLE "0:"
    INDEX 01 00:51:24
  TRACK 26 AUDIO
    TITLE "4:cjc129_0789"
    INDEX 01 00:52:12
  TRACK 27 AUDIO
    TITLE "0:"
    INDEX 01 00:53:31
  TRACK 28 AUDIO
    TITLE "6:cjc129_0790"
    INDEX 01 00:53:60
  TRACK 29 AUDIO
    TITLE "0:"
    INDEX 01 00:58:11
  TRACK 30 AUDIO
    TITLE "3:cjc129_0791"
    INDEX 01 00:59:61
  TRACK 31 AUDIO
    TITLE "0:"
    INDEX 01 01:01:01
  TRACK 32 AUDIO
    TITLE "5:cjc129_0792"
    INDEX 01 01:01:31
  TRACK 33 AUDIO
    TITLE "0:"
    INDEX 01 01:03:29
  TRACK 34 AUDIO
    TITLE "4:cjc129_0793"
    INDEX 01 01:04:17
  TRACK 35 AUDIO
    TITLE "0:"
    INDEX 01 01:05:34
  TRACK 36 AUDIO
    TITLE "6:cjc129_0794"
    INDEX 01 01:05:58
  TRACK 37 AUDIO
    TITLE "0:"
    INDEX 01 01:10:53
  TRACK 38 AUDIO
    TITLE "3:cjc129_0795"
    INDEX 01 01:12:26
  TRACK 39 AUDIO
    TITLE "0:"
    INDEX 01 01:13:57
  TRACK 40 AUDIO
    TITLE "5:cjc129_0796"
    INDEX 01 01:14:16
  TRACK 41 AUDIO
    TITLE "0:"
    INDEX 01 01:18:21
  TRACK 42 AUDIO
    TITLE "4:cjc129_0797"
    INDEX 01 01:19:09
  TRACK 43 AUDIO
    TITLE "0:"
    INDEX 01 01:20:38
  TRACK 44 AUDIO
    TITLE "6:cjc129_0798"
    INDEX 01 01:21:00
  TRACK 45 AUDIO
    TITLE "0:"
    INDEX 01 01:25:47
  TRACK 46 AUDIO
    TITLE "3:cjc129_0799"
    INDEX 01 01:27:24
  TRACK 47 AUDIO
    TITLE "0:"
    INDEX 01 01:28:63
  TRACK 48 AUDIO
    TITLE "5:cjc129_0800"
    INDEX 01 01:29:21
  TRACK 49 AUDIO
    TITLE "0:"
    INDEX 01 01:33:36
  TRACK 50 AUDIO
    TITLE "4:cjc129_0801"
    INDEX 01 01:34:28
  TRACK 51 AUDIO
    TITLE "0:"
    INDEX 01 01:35:67
  TRACK 52 AUDIO
    TITLE "6:cjc129_0802"
    INDEX 01 01:36:29
  TRACK 53 AUDIO
    TITLE "0:"
    INDEX 01 01:40:35
  TRACK 54 AUDIO
    TITLE "3:cjc129_0803"
    INDEX 01 01:42:10
  TRACK 55 AUDIO
    TITLE "0:"
    INDEX 01 01:43:23
  TRACK 56 AUDIO
    TITLE "5:cjc129_0804"
    INDEX 01 01:43:56
  TRACK 57 AUDIO
    TITLE "0:"
    INDEX 01 01:48:24
  TRACK 58 AUDIO
    TITLE "4:cjc129_0805"
    INDEX 01 01:49:14
  TRACK 59 AUDIO
    TITLE "0:"
    INDEX 01 01:50:29
  TRACK 60 AUDIO
    TITLE "6:cjc129_0806"
    INDEX 01 01:50:60
  TRACK 61 AUDIO
    TITLE "0:"
    INDEX 01 01:55:09
